<?xml version="1.0" encoding="UTF-8" standalone="no"?>
<!DOCTYPE svg PUBLIC "-//W3C//DTD SVG 1.0//EN" "http://www.w3.org/TR/2001/REC-SVG-20010904/DTD/svg10.dtd">
<!-- Generated by Microsoft Visio 11.0, SVG Export, v1.0 incremental-remove-b.svg Page-1 -->
<svg xmlns="http://www.w3.org/2000/svg" xmlns:xlink="http://www.w3.org/1999/xlink" xmlns:ev="http://www.w3.org/2001/xml-events"
		xmlns:v="http://schemas.microsoft.com/visio/2003/SVGExtensions/" width="3.21107in" height="2.22091in"
		viewBox="0 0 231.197 159.906" xml:space="preserve" color-interpolation-filters="sRGB" class="st7">
	<v:documentProperties v:langID="1035" v:metric="true" v:viewMarkup="false"/>

	<style type="text/css">
	<![CDATA[
		.st1 {fill:#ffffff;stroke:#000000;stroke-linecap:round;stroke-linejoin:round;stroke-width:1}
		.st2 {fill:#000000;font-family:Calibri;font-size:4.00001em}
		.st3 {marker-end:url(#mrkr13-9);stroke:#000000;stroke-linecap:round;stroke-linejoin:round;stroke-width:1}
		.st4 {fill:#000000;fill-opacity:1;stroke:#000000;stroke-opacity:1;stroke-width:0.28409090909091}
		.st5 {stroke:#ff0000;stroke-linecap:round;stroke-linejoin:round;stroke-width:3}
		.st6 {stroke:#ff0000;stroke-linecap:round;stroke-linejoin:round;stroke-width:2.25}
		.st7 {fill:none;fill-rule:evenodd;font-size:12px;overflow:visible;stroke-linecap:square;stroke-miterlimit:3}
	]]>
	</style>

	<defs id="Markers">
		<g id="lend13">
			<path d="M 3 1 L 0 0 L 3 -1 L 3 1 " style="stroke:none"/>
		</g>
		<marker id="mrkr13-9" class="st4" v:arrowType="13" v:arrowSize="2" v:setback="10.56" refX="-10.56" orient="auto"
				markerUnits="strokeWidth" overflow="visible">
			<use xlink:href="#lend13" transform="scale(-3.52,-3.52) "/>
		</marker>
	</defs>
	<g v:mID="0" v:index="1" v:groupContext="foregroundPage">
		<title>Page-1</title>
		<v:pageProperties v:drawingScale="0.0393701" v:pageScale="0.0393701" v:drawingUnits="24" v:shadowOffsetX="8.50394"
				v:shadowOffsetY="-8.50394"/>
		<g id="shape4-1" v:mID="4" v:groupContext="shape" transform="translate(36.4331,-117.22)">
			<title>Circle - radius.4</title>
			<desc>A</desc>
			<v:userDefs>
				<v:ud v:nameU="visVersion" v:val="VT0(14):26"/>
			</v:userDefs>
			<v:textBlock v:margins="rect(0,0,0,0)" v:tabSpace="42.5197"/>
			<v:textRect cx="0" cy="159.906" width="70.87" height="35.4331"/>
			<path d="M-35.43 159.91 A35.4331 35.4331 0 0 1 35.43 159.91 A35.4331 35.4331 0 1 1 -35.43 159.91 Z" class="st1"/>
			<text x="-13.89" y="174.31" class="st2" v:langID="1035"><v:paragraph v:horizAlign="1"/><v:tabList/>A</text>		</g>
		<g id="shape8-4" v:mID="8" v:groupContext="shape" transform="translate(71.8661,-117.22)">
			<title>Sheet.8</title>
			<path d="M0 159.91 L71.64 159.91" class="st3"/>
		</g>
		<g id="shape9-10" v:mID="9" v:groupContext="shape" transform="translate(189.504,-117.22)">
			<title>Circle - radius.9</title>
			<desc>B</desc>
			<v:userDefs>
				<v:ud v:nameU="visVersion" v:val="VT0(14):26"/>
			</v:userDefs>
			<v:textBlock v:margins="rect(0,0,0,0)" v:tabSpace="42.5197"/>
			<v:textRect cx="0" cy="159.906" width="70.87" height="35.4331"/>
			<path d="M-35.43 159.91 A35.4331 35.4331 0 0 1 35.43 159.91 A35.4331 35.4331 0 1 1 -35.43 159.91 Z" class="st1"/>
			<text x="-13.05" y="174.31" class="st2" v:langID="1035"><v:paragraph v:horizAlign="1"/><v:tabList/>B</text>		</g>
		<g id="shape10-13" v:mID="10" v:groupContext="shape" transform="translate(266.432,-110.07) rotate(45)">
			<title>Sheet.10</title>
			<path d="M0 159.91 L105.83 159.91" class="st5"/>
		</g>
		<g id="shape11-16" v:mID="11" v:groupContext="shape" transform="translate(340.133,116.07) rotate(135)">
			<title>Sheet.11</title>
			<path d="M0 159.91 L109.84 159.91" class="st5"/>
		</g>
		<g id="shape22-19" v:mID="22" v:groupContext="shape" transform="translate(189.008,-36.4331)">
			<title>Circle - radius.22</title>
			<desc>?</desc>
			<v:userDefs>
				<v:ud v:nameU="visVersion" v:val="VT0(14):26"/>
			</v:userDefs>
			<v:textBlock v:margins="rect(0,0,0,0)" v:tabSpace="42.5197"/>
			<v:textRect cx="0" cy="159.906" width="70.87" height="35.4331"/>
			<path d="M-35.43 159.91 A35.4331 35.4331 0 0 1 35.43 159.91 A35.4331 35.4331 0 1 1 -35.43 159.91 Z" class="st1"/>
			<text x="-11.12" y="174.31" class="st2" v:langID="1035"><v:paragraph v:horizAlign="1"/><v:tabList/>?</text>		</g>
		<g id="shape23-22" v:mID="23" v:groupContext="shape" transform="translate(162.571,-89.0052) rotate(34.5582)">
			<title>Sheet.23</title>
			<path d="M0 159.91 L96.31 159.91" class="st3"/>
		</g>
		<g id="shape24-27" v:mID="24" v:groupContext="shape" transform="translate(215.621,-81.7238) rotate(45)">
			<title>Sheet.24</title>
			<path d="M0 159.91 L31.27 159.91" class="st6"/>
		</g>
		<g id="shape25-30" v:mID="25" v:groupContext="shape" transform="translate(238.299,144.417) rotate(135)">
			<title>Sheet.25</title>
			<path d="M0 159.91 L31.67 159.91" class="st6"/>
		</g>
	</g>
</svg>
