<?xml version="1.0" encoding="UTF-8" standalone="no"?>
<!DOCTYPE svg PUBLIC "-//W3C//DTD SVG 1.0//EN" "http://www.w3.org/TR/2001/REC-SVG-20010904/DTD/svg10.dtd">
<!-- Generated by Microsoft Visio 11.0, SVG Export, v1.0 lookaheads.svg Page-1 -->
<svg xmlns="http://www.w3.org/2000/svg" xmlns:xlink="http://www.w3.org/1999/xlink" xmlns:ev="http://www.w3.org/2001/xml-events"
		xmlns:v="http://schemas.microsoft.com/visio/2003/SVGExtensions/" width="8.51876in" height="4.97234in"
		viewBox="0 0 613.35 358.009" xml:space="preserve" color-interpolation-filters="sRGB" class="st8">
	<v:documentProperties v:langID="1035" v:metric="true" v:viewMarkup="false">
		<v:userDefs>
			<v:ud v:nameU="msvNoAutoConnect" v:val="VT0(1):26"/>
		</v:userDefs>
	</v:documentProperties>

	<style type="text/css">
	<![CDATA[
		.st1 {fill:#e8eef7;stroke:#000000;stroke-linecap:round;stroke-linejoin:round;stroke-width:0.25}
		.st2 {fill:#000000;font-family:Calibri;font-size:2.50001em}
		.st3 {font-size:1.6em}
		.st4 {font-size:1em}
		.st5 {marker-end:url(#mrkr13-41);stroke:#000000;stroke-linecap:round;stroke-linejoin:round;stroke-width:0.25}
		.st6 {fill:#000000;fill-opacity:1;stroke:#000000;stroke-opacity:1;stroke-width:0.090252707581227}
		.st7 {marker-end:url(#mrkr13-47);stroke:#000000;stroke-linecap:round;stroke-linejoin:round;stroke-width:0.25}
		.st8 {fill:none;fill-rule:evenodd;font-size:12px;overflow:visible;stroke-linecap:square;stroke-miterlimit:3}
	]]>
	</style>

	<defs id="Markers">
		<g id="lend13">
			<path d="M 3 1 L 0 0 L 3 -1 L 3 1 " style="stroke:none"/>
		</g>
		<marker id="mrkr13-41" class="st6" v:arrowType="13" v:arrowSize="2" v:setback="31.8" refX="-31.8" orient="auto"
				markerUnits="strokeWidth" overflow="visible">
			<use xlink:href="#lend13" transform="scale(-11.08,-11.08) "/>
		</marker>
		<marker id="mrkr13-47" class="st6" v:arrowType="13" v:arrowSize="2" v:setback="33.24" refX="-33.24" orient="auto"
				markerUnits="strokeWidth" overflow="visible">
			<use xlink:href="#lend13" transform="scale(-11.08,-11.08) "/>
		</marker>
	</defs>
	<g v:mID="0" v:index="1" v:groupContext="foregroundPage">
		<title>Page-1</title>
		<v:pageProperties v:drawingScale="0.0393701" v:pageScale="0.0393701" v:drawingUnits="24" v:shadowOffsetX="8.50394"
				v:shadowOffsetY="-8.50394"/>
		<v:layer v:name="Connector" v:index="0"/>
		<g id="shape1-1" v:mID="1" v:groupContext="shape" transform="translate(18.25,-208.361)">
			<title>Rectangle</title>
			<desc>{+,),#} E {+,),#}</desc>
			<v:userDefs>
				<v:ud v:nameU="visVersion" v:val="VT0(14):26"/>
			</v:userDefs>
			<v:textBlock v:margins="rect(4,4,4,4)" v:tabSpace="42.5197"/>
			<v:textRect cx="59.5276" cy="292.31" width="119.06" height="131.398"/>
			<rect x="0" y="226.611" width="119.055" height="131.398" class="st1"/>
			<text x="23.12" y="254.51" class="st2" v:langID="1035"><v:paragraph v:horizAlign="1"/><v:tabList/>{+,),#}<v:newlineChar/><tspan
						x="47.81" dy="1.088em" class="st3">E<v:newlineChar/></tspan><tspan x="23.12" dy="1.38em" class="st4">{</tspan>+,),#}</text>		</g>
		<g id="shape2-6" v:mID="2" v:groupContext="shape" transform="translate(288.25,-208.367)">
			<title>Rectangle.2</title>
			<desc>{} T {+,),#,*}</desc>
			<v:userDefs>
				<v:ud v:nameU="visVersion" v:val="VT0(14):26"/>
			</v:userDefs>
			<v:textBlock v:margins="rect(4,4,4,4)" v:tabSpace="42.5197"/>
			<v:textRect cx="60.2362" cy="292.316" width="120.48" height="131.386"/>
			<rect x="0" y="226.623" width="120.472" height="131.386" class="st1"/>
			<text x="50.8" y="254.52" class="st2" v:langID="1035"><v:paragraph v:horizAlign="1"/><v:tabList/>{}<v:newlineChar/><tspan
						x="48.54" dy="1.088em" class="st3">T<v:newlineChar/></tspan><tspan x="12.61" dy="1.38em" class="st4">{</tspan>+,),#,*}</text>		</g>
		<g id="shape3-11" v:mID="3" v:groupContext="shape" transform="translate(474.628,-208.367)">
			<title>Rectangle.3</title>
			<desc>{} F {+,),#,*}</desc>
			<v:userDefs>
				<v:ud v:nameU="visVersion" v:val="VT0(14):26"/>
			</v:userDefs>
			<v:textBlock v:margins="rect(4,4,4,4)" v:tabSpace="42.5197"/>
			<v:textRect cx="60.2362" cy="292.316" width="120.48" height="131.386"/>
			<rect x="0" y="226.623" width="120.472" height="131.386" class="st1"/>
			<text x="50.8" y="254.52" class="st2" v:langID="1035"><v:paragraph v:horizAlign="1"/><v:tabList/>{}<v:newlineChar/><tspan
						x="49.21" dy="1.088em" class="st3">F<v:newlineChar/></tspan><tspan x="12.61" dy="1.38em" class="st4">{</tspan>+,),#,*}</text>		</g>
		<g id="shape5-16" v:mID="5" v:groupContext="shape" transform="translate(165.652,-18.25)">
			<title>Rounded rectangle</title>
			<desc>{} E→T {+,),#}</desc>
			<v:userDefs>
				<v:ud v:nameU="visVersion" v:val="VT0(14):26"/>
			</v:userDefs>
			<v:textBlock v:margins="rect(4,4,4,4)" v:tabSpace="42.5197"/>
			<v:textRect cx="46.7717" cy="291.297" width="93.55" height="133.424"/>
			<path d="M79.37 358.01 A14.1733 14.1733 -180 0 0 93.54 343.84 L93.54 238.76 A14.1733 14.1733 -180 0 0 79.37 224.58 L14.17
						 224.58 A14.1733 14.1733 -180 0 0 -0 238.76 L0 343.84 A14.1733 14.1733 -180 0 0 14.17 358.01 L79.37 358.01
						 Z" class="st1"/>
			<text x="37.34" y="264.3" class="st2" v:langID="1035"><v:paragraph v:horizAlign="1"/><v:tabList/>{}<v:newlineChar/><tspan
						x="18.56" dy="1.2em" class="st4">E</tspan>→T<v:newlineChar/><tspan x="10.36" dy="1.2em" class="st4">{</tspan>+,),#}</text>		</g>
		<g id="shape4-21" v:mID="4" v:groupContext="shape" transform="translate(26.0453,-22.7286)">
			<title>Rounded rectangle.4</title>
			<desc>{+} E→E+T {+}</desc>
			<v:userDefs>
				<v:ud v:nameU="visVersion" v:val="VT0(14):26"/>
			</v:userDefs>
			<v:textBlock v:margins="rect(4,4,4,4)" v:tabSpace="42.5197"/>
			<v:textRect cx="51.7323" cy="295.775" width="103.47" height="124.467"/>
			<path d="M89.29 358.01 A14.1733 14.1733 -180 0 0 103.46 343.84 L103.46 247.72 A14.1733 14.1733 -180 0 0 89.29 233.54
						 L14.17 233.54 A14.1733 14.1733 -180 0 0 -0 247.72 L0 343.84 A14.1733 14.1733 -180 0 0 14.17 358.01 L89.29
						 358.01 Z" class="st1"/>
			<text x="34.83" y="263.98" class="st2" v:langID="1035"><v:paragraph v:horizAlign="1"/><v:tabList/>{+}<v:newlineChar/><tspan
						x="8.72" dy="1.2em" class="st4">E</tspan>→E+T<v:newlineChar/><tspan x="34.83" dy="1.2em" class="st4">{</tspan>+}<v:newlineChar/></text>		</g>
		<g id="shape6-26" v:mID="6" v:groupContext="shape" transform="translate(479.589,-18.25)">
			<title>Rounded rectangle.6</title>
			<desc>{} T→F {+,),#,*}</desc>
			<v:userDefs>
				<v:ud v:nameU="visVersion" v:val="VT0(14):26"/>
			</v:userDefs>
			<v:textBlock v:margins="rect(4,4,4,4)" v:tabSpace="42.5197"/>
			<v:textRect cx="55.2756" cy="291.297" width="110.56" height="133.424"/>
			<path d="M96.38 358.01 A14.1733 14.1733 -180 0 0 110.55 343.84 L110.55 238.76 A14.1733 14.1733 -180 0 0 96.38 224.58
						 L14.17 224.58 A14.1733 14.1733 -180 0 0 -0 238.76 L0 343.84 A14.1733 14.1733 -180 0 0 14.17 358.01 L96.38
						 358.01 Z" class="st1"/>
			<text x="45.84" y="264.3" class="st2" v:langID="1035"><v:paragraph v:horizAlign="1"/><v:tabList/>{}<v:newlineChar/><tspan
						x="27.49" dy="1.2em" class="st4">T</tspan>→F<v:newlineChar/><tspan x="7.65" dy="1.2em" class="st4">{</tspan>+,),#,*}</text>		</g>
		<g id="shape7-31" v:mID="7" v:groupContext="shape" transform="translate(287.541,-24.017)">
			<title>Rounded rectangle.7</title>
			<desc>{*} T→T*F {*}</desc>
			<v:userDefs>
				<v:ud v:nameU="visVersion" v:val="VT0(14):26"/>
			</v:userDefs>
			<v:textBlock v:margins="rect(4,4,4,4)" v:tabSpace="42.5197"/>
			<v:textRect cx="60.9449" cy="297.064" width="121.89" height="121.89"/>
			<path d="M107.72 358.01 A14.1733 14.1733 -180 0 0 121.89 343.84 L121.89 250.29 A14.1733 14.1733 -180 0 0 107.72 236.12
						 L14.17 236.12 A14.1733 14.1733 -180 0 0 -0 250.29 L0 343.84 A14.1733 14.1733 -180 0 0 14.17 358.01 L107.72
						 358.01 Z" class="st1"/>
			<text x="44.04" y="270.06" class="st2" v:langID="1035"><v:paragraph v:horizAlign="1"/><v:tabList/>{*}<v:newlineChar/><tspan
						x="18.38" dy="1.2em" class="st4">T</tspan>→T*F<v:newlineChar/><tspan x="44.04" dy="1.2em" class="st4">{</tspan>*}</text>		</g>
		<g id="shape8-36" v:mID="8" v:groupContext="shape" v:layerMember="0" transform="translate(165.652,-84.9619)">
			<title>Dynamic connector</title>
			<path d="M0 358.01 C-10.63 358.01 -10.63 310.8 -10.63 263.59 C-10.63 224.11 -10.63 184.63 -20.91 172.61 L-21.23 172.45"
					class="st5"/>
		</g>
		<g id="shape9-42" v:mID="9" v:groupContext="shape" v:layerMember="0" transform="translate(70.6909,-208.361)">
			<title>Dynamic connector.9</title>
			<path d="M7.09 358.01 C7.09 370.87 7.09 394.56 7.09 410.86" class="st7"/>
		</g>
		<g id="shape10-48" v:mID="10" v:groupContext="shape" v:layerMember="0" transform="translate(288.25,-274.06)">
			<title>Dynamic connector.10</title>
			<path d="M0 358.01 C-18.96 358.01 -45.61 358.01 -59.77 378.17 C-74.44 399.06 -75.71 441.56 -75.82 472.08 L-75.82 472.44"
					class="st5"/>
		</g>
		<g id="shape11-53" v:mID="11" v:groupContext="shape" v:layerMember="0" transform="translate(341.4,-208.367)">
			<title>Dynamic connector.11</title>
			<path d="M7.09 358.01 C7.09 371.19 7.09 395.51 7.09 412.16" class="st7"/>
		</g>
		<g id="shape12-58" v:mID="12" v:groupContext="shape" v:layerMember="0" transform="translate(479.589,-84.9619)">
			<title>Dynamic connector.12</title>
			<path d="M0 358.01 C-60.24 358.01 -60.24 309.63 -60.24 261.25 C-60.24 225.2 -60.24 189.15 -65.3 175.08 L-65.54 174.81"
					class="st5"/>
		</g>
		<g id="shape13-63" v:mID="13" v:groupContext="shape" v:layerMember="0" transform="translate(527.778,-208.367)">
			<title>Dynamic connector.13</title>
			<path d="M7.09 358.01 C7.09 369.77 7.09 391.31 7.09 406.39" class="st7"/>
		</g>
	</g>
</svg>
